<svg width="115" height="21" viewBox="0 0 115 21" fill="none" xmlns="http://www.w3.org/2000/svg">
<path d="M30.087 13.4001L29.086 16.5806H25.2113L30.7489 0.726562H35.1887L40.2259 16.5806H36.1897L35.334 13.4001H30.087ZM32.8962 4.27839L30.975 10.478H34.5591L32.8962 4.27839Z" fill="white"/>
<path d="M45.4379 5.10167L45.3411 6.45782C46.3097 5.24697 47.1493 4.79492 48.57 4.79492C51.5891 4.79492 53.6394 7.21662 53.6394 10.8007C53.6394 14.4656 51.6213 16.8873 48.6023 16.8873C47.343 16.8873 46.4712 16.5321 45.5187 15.6442V20.2131H42.1444V5.10167H45.4379ZM45.3895 10.833C45.3895 12.8834 46.342 14.1588 47.8596 14.1588C49.3288 14.1588 50.3136 12.8673 50.3136 10.8815C50.3136 8.81495 49.3934 7.52337 47.8435 7.52337C46.342 7.52337 45.3895 8.81495 45.3895 10.833Z" fill="white"/>
<path d="M58.8515 5.10167L58.7546 6.45782C59.7233 5.24697 60.5628 4.79492 61.9836 4.79492C65.0026 4.79492 67.053 7.21662 67.053 10.8007C67.053 14.4656 65.0349 16.8873 62.0159 16.8873C60.7566 16.8873 59.8848 16.5321 58.9322 15.6442V20.2131H55.558V5.10167H58.8515ZM58.8031 10.833C58.8031 12.8834 59.7556 14.1588 61.2732 14.1588C62.7424 14.1588 63.7272 12.8673 63.7272 10.8815C63.7272 8.81495 62.807 7.52337 61.2571 7.52337C59.7556 7.52337 58.8031 8.81495 58.8031 10.833Z" fill="white"/>
<path d="M76.834 9.23471C76.6403 8.13687 75.8815 7.52337 74.7352 7.52337C73.1853 7.52337 72.3619 8.68579 72.3619 10.7846C72.3619 12.9964 73.2015 14.1588 74.7675 14.1588C75.9784 14.1588 76.6403 13.5453 76.8986 12.1892L80.176 12.3506C79.7078 15.2567 77.7058 16.8873 74.6706 16.8873C71.1834 16.8873 68.9716 14.5625 68.9716 10.8815C68.9716 7.07132 71.1511 4.79492 74.7998 4.79492C77.7866 4.79492 79.8369 6.50626 80.0468 9.23471H76.834Z" fill="white"/>
<path d="M85.4849 11.834C85.6947 13.4 86.6311 14.2557 88.0842 14.2557C88.9883 14.2557 89.6341 13.9489 90.0861 13.2386H93.5088C92.863 15.4665 90.7319 16.9034 87.9873 16.9034C84.4516 16.9034 82.0945 14.4817 82.0945 10.8653C82.0945 7.28117 84.5 4.81104 87.955 4.81104C90.3767 4.81104 92.2172 6.02189 93.0729 8.18527C93.4765 9.18625 93.6379 10.2518 93.6379 11.8501H85.4849V11.834ZM90.1668 9.46071C90.0215 8.10455 89.2466 7.3619 87.9389 7.3619C86.6311 7.3619 85.7755 8.10455 85.5172 9.46071H90.1668Z" fill="white"/>
<path d="M98.8339 5.10173V6.21572C100.061 5.06944 100.787 4.7627 101.966 4.7627C104.452 4.7627 105.986 6.4256 105.986 9.13791V16.5806H102.612V10.3326C102.612 9.1702 102.547 8.71814 102.257 8.28224C101.966 7.86248 101.465 7.62031 100.884 7.62031C100.319 7.62031 99.7864 7.83019 99.4312 8.2338C99.0438 8.65357 98.9308 9.13791 98.9308 10.1389V16.5806H95.5565V5.10173H98.8339Z" fill="white"/>
<path d="M114.96 7.62008H112.893V12.0922C112.893 13.9004 112.958 14.0457 113.749 14.0457H114.96V16.5804H112.893C111.424 16.5804 110.681 16.3705 110.181 15.8216C109.664 15.2565 109.519 14.6269 109.519 12.851V7.62008H107.904V5.24681H109.519V1.61426H112.893V5.24681H114.96V7.62008Z" fill="white"/>
<path d="M11.7713 16.6773H1.66031C1.02037 16.6773 0.508423 16.1562 0.508423 15.5254C0.508423 14.8855 1.02951 14.3735 1.66031 14.3735H11.7713C12.4112 14.3735 12.9232 14.8946 12.9232 15.5254C12.9232 16.1654 12.4112 16.6773 11.7713 16.6773Z" fill="#FF7A00"/>
<path d="M18.9661 12.0699H11.168C10.5281 12.0699 10.0161 11.5488 10.0161 10.918C10.0161 10.2781 10.5372 9.76611 11.168 9.76611H18.9661C19.606 9.76611 20.118 10.2872 20.118 10.918C20.118 11.5488 19.5969 12.0699 18.9661 12.0699Z" fill="#FF7A00"/>
<path d="M11.2776 7.45319H6.99002C6.35008 7.45319 5.83813 6.94124 5.83813 6.3013C5.83813 5.66136 6.35923 5.14941 6.99002 5.14941H11.2776C11.9175 5.14941 12.4295 5.67051 12.4295 6.3013C12.4295 6.93209 11.9175 7.45319 11.2776 7.45319Z" fill="#FF7A00"/>
<path d="M13.6638 2.83649H9.65958C9.01964 2.83649 8.50769 2.32454 8.50769 1.6846C8.50769 1.04466 9.02878 0.532715 9.65958 0.532715H13.6638C14.3037 0.532715 14.8156 1.04466 14.8156 1.6846C14.8156 2.3154 14.2945 2.83649 13.6638 2.83649Z" fill="#FF7A00"/>
<path d="M16.324 7.45319H15.8943C15.2544 7.45319 14.7424 6.94124 14.7424 6.3013C14.7424 5.66136 15.2544 5.14941 15.8943 5.14941H16.324C16.9639 5.14941 17.4759 5.67051 17.4759 6.3013C17.4759 6.93209 16.9639 7.45319 16.324 7.45319Z" fill="#FF7A00"/>
<path d="M6.5421 12.0699H4.32974C3.68981 12.0699 3.17786 11.5488 3.17786 10.918C3.17786 10.2781 3.69895 9.76611 4.32974 9.76611H6.5421C7.18203 9.76611 7.69398 10.2872 7.69398 10.918C7.70312 11.5488 7.18203 12.0699 6.5421 12.0699Z" fill="#FF7A00"/>
<path d="M21.6537 16.6773H16.388C15.748 16.6773 15.2361 16.1562 15.2361 15.5254C15.2361 14.8855 15.7572 14.3735 16.388 14.3735H21.6537C22.2937 14.3735 22.8056 14.8946 22.8056 15.5254C22.8148 16.1654 22.2937 16.6773 21.6537 16.6773Z" fill="#FF7A00"/>
</svg>
