<svg width="227" height="39" viewBox="0 0 227 39" fill="none" xmlns="http://www.w3.org/2000/svg">
<path d="M58.6152 25.499L56.6315 31.8017H48.9531L59.9268 0.384277H68.725L78.7071 31.8017H70.7087L69.013 25.499H58.6152ZM64.1821 7.42276L60.3749 19.7083H67.4774L64.1821 7.42276Z" fill="#1E2C40"/>
<path d="M89.0354 9.05427L88.8436 11.7416C90.763 9.34221 92.4268 8.44629 95.2422 8.44629C101.225 8.44629 105.288 13.2453 105.288 20.3478C105.288 27.6104 101.289 32.4094 95.3062 32.4094C92.8107 32.4094 91.0831 31.7055 89.1955 29.946V39.0001H82.5088V9.05427H89.0354ZM88.9395 20.4118C88.9395 24.475 90.827 27.0024 93.8344 27.0024C96.7459 27.0024 98.6974 24.4431 98.6974 20.5079C98.6974 16.4126 96.8739 13.8533 93.8025 13.8533C90.827 13.8533 88.9395 16.4126 88.9395 20.4118Z" fill="#1E2C40"/>
<path d="M115.617 9.05427L115.425 11.7416C117.345 9.34221 119.009 8.44629 121.824 8.44629C127.807 8.44629 131.87 13.2453 131.87 20.3478C131.87 27.6104 127.871 32.4094 121.888 32.4094C119.393 32.4094 117.665 31.7055 115.777 29.946V39.0001H109.091V9.05427H115.617ZM115.522 20.4118C115.522 24.475 117.409 27.0024 120.416 27.0024C123.328 27.0024 125.279 24.4431 125.279 20.5079C125.279 16.4126 123.456 13.8533 120.385 13.8533C117.409 13.8533 115.522 16.4126 115.522 20.4118Z" fill="#1E2C40"/>
<path d="M151.253 17.2445C150.868 15.069 149.364 13.8533 147.093 13.8533C144.021 13.8533 142.391 16.1568 142.391 20.3159C142.391 24.6989 144.053 27.0024 147.158 27.0024C149.556 27.0024 150.868 25.7867 151.381 23.0994L157.875 23.4192C156.948 29.1781 152.981 32.4094 146.966 32.4094C140.055 32.4094 135.672 27.8024 135.672 20.5079C135.672 12.9574 139.991 8.44629 147.222 8.44629C153.141 8.44629 157.203 11.8377 157.62 17.2445H151.253Z" fill="#1E2C40"/>
<path d="M168.397 22.3955C168.813 25.4988 170.668 27.1945 173.547 27.1945C175.338 27.1945 176.619 26.5866 177.514 25.179H184.298C183.017 29.594 178.794 32.4414 173.355 32.4414C166.35 32.4414 161.677 27.6424 161.677 20.4759C161.677 13.3734 166.445 8.47827 173.291 8.47827C178.091 8.47827 181.737 10.8779 183.433 15.165C184.232 17.1485 184.553 19.2601 184.553 22.4274H168.397V22.3955ZM177.675 17.6924C177.387 15.0051 175.852 13.5333 173.26 13.5333C170.668 13.5333 168.971 15.0051 168.46 17.6924H177.675Z" fill="#1E2C40"/>
<path d="M194.849 9.05435V11.2619C197.281 8.99034 198.72 8.38257 201.056 8.38257C205.982 8.38257 209.022 11.6779 209.022 17.0528V31.8017H202.336V19.4203C202.336 17.1168 202.207 16.2209 201.633 15.3571C201.056 14.5253 200.063 14.0454 198.912 14.0454C197.792 14.0454 196.736 14.4613 196.032 15.2611C195.266 16.093 195.042 17.0528 195.042 19.0364V31.8017H188.355V9.05435H194.849Z" fill="#1E2C40"/>
<path d="M226.805 14.0448H222.709V22.907C222.709 26.4903 222.838 26.7782 224.405 26.7782H226.805V31.8012H222.709C219.798 31.8012 218.325 31.3852 217.335 30.2975C216.31 29.1776 216.023 27.93 216.023 24.4107V14.0448H212.822V9.34172H216.023V2.14331H222.709V9.34172H226.805V14.0448Z" fill="#1E2C40"/>
<path d="M22.3193 31.9934H2.28268C1.01461 31.9934 0 30.9607 0 29.7107C0 28.4426 1.03265 27.428 2.28268 27.428H22.3193C23.5874 27.428 24.602 28.4606 24.602 29.7107C24.602 30.9789 23.5874 31.9934 22.3193 31.9934Z" fill="#FF7A00"/>
<path d="M36.5775 22.863H21.1243C19.8562 22.863 18.8418 21.8303 18.8418 20.5803C18.8418 19.3122 19.8742 18.2976 21.1243 18.2976H36.5775C37.8458 18.2976 38.8602 19.3303 38.8602 20.5803C38.8602 21.8303 37.8276 22.863 36.5775 22.863Z" fill="#FF7A00"/>
<path d="M21.3418 13.7141H12.8452C11.5769 13.7141 10.5625 12.6994 10.5625 11.4314C10.5625 10.1633 11.5952 9.14868 12.8452 9.14868H21.3418C22.6099 9.14868 23.6243 10.1813 23.6243 11.4314C23.6243 12.6814 22.6099 13.7141 21.3418 13.7141Z" fill="#FF7A00"/>
<path d="M26.0702 4.56537H18.1352C16.8672 4.56537 15.8525 3.55076 15.8525 2.28269C15.8525 1.01462 16.8852 0 18.1352 0H26.0702C27.3383 0 28.3529 1.01462 28.3529 2.28269C28.3529 3.53272 27.3203 4.56537 26.0702 4.56537Z" fill="#FF7A00"/>
<path d="M31.3412 13.7141H30.4897C29.2216 13.7141 28.207 12.6994 28.207 11.4314C28.207 10.1633 29.2216 9.14868 30.4897 9.14868H31.3412C32.6093 9.14868 33.6239 10.1813 33.6239 11.4314C33.6239 12.6814 32.6093 13.7141 31.3412 13.7141Z" fill="#FF7A00"/>
<path d="M11.9568 22.863H7.57253C6.30446 22.863 5.29004 21.8303 5.29004 20.5803C5.29004 19.3122 6.32249 18.2976 7.57253 18.2976H11.9568C13.2248 18.2976 14.2395 19.3303 14.2395 20.5803C14.2575 21.8303 13.2248 22.863 11.9568 22.863Z" fill="#FF7A00"/>
<path d="M41.9041 31.9934H31.4692C30.2009 31.9934 29.1865 30.9607 29.1865 29.7107C29.1865 28.4426 30.2192 27.428 31.4692 27.428H41.9041C43.1724 27.428 44.1868 28.4606 44.1868 29.7107C44.205 30.9789 43.1724 31.9934 41.9041 31.9934Z" fill="#FF7A00"/>
<path d="M221.812 36.9202H219.83V38.9018H221.812V36.9202Z" fill="white"/>
</svg>
